<?xml version="1.0" encoding="UTF-8"?>
<svg version="1.1" xmlns="http://www.w3.org/2000/svg" width="862" height="360">
<path d="M0 0 C1.23722809 -0.00426498 2.47445618 -0.00852997 3.74917603 -0.01292419 C5.13368228 -0.01257459 6.51818851 -0.012113 7.9026947 -0.0115509 C9.35156847 -0.01454138 10.80044144 -0.01794365 12.24931335 -0.02172852 C16.20322307 -0.03060119 20.15711116 -0.03290847 24.11102986 -0.0335443 C26.59020096 -0.03425493 29.06936657 -0.03638989 31.5485363 -0.03904152 C40.22567467 -0.04831769 48.90279764 -0.05237507 57.5799408 -0.05158997 C65.61553529 -0.05099405 73.65106159 -0.06144328 81.68663889 -0.07733363 C88.61351933 -0.09053335 95.54037791 -0.09576846 102.46727079 -0.09513456 C106.5905915 -0.09488244 110.71385212 -0.09756949 114.83716011 -0.10831261 C202.3459046 -0.31995325 202.3459046 -0.31995325 233.99229431 30.95402527 C237.73982079 34.63659036 241.84451148 37.39453942 246.30870056 40.13371277 C261.49882529 50.89338445 267.88353903 68.46462052 270.99620056 86.00871277 C273.28381115 108.6465259 268.4513328 131.59434193 254.24620056 149.69621277 C252.95534436 151.19430507 251.64446752 152.67552317 250.30870056 154.13371277 C249.76858337 154.74215027 249.22846619 155.35058777 248.67198181 155.97746277 C239.28665844 165.9763545 227.74852319 172.68572362 215.30870056 178.13371277 C214.64870056 178.13371277 213.98870056 178.13371277 213.30870056 178.13371277 C213.68454285 178.78517273 214.06038513 179.43663269 214.44761658 180.10783386 C215.59150618 182.09057584 216.73538534 184.07332384 217.8792572 186.05607605 C219.22602479 188.39042918 220.57285663 190.72474512 221.91978455 193.05900574 C225.33247354 198.97349766 228.74409462 204.88859718 232.15245056 210.80558777 C235.86599464 217.25130872 239.58508582 223.69380444 243.30870056 230.13371277 C243.90038025 231.15738953 244.49205994 232.18106628 245.10166931 233.23576355 C251.62860228 244.51561486 258.23267229 255.74383565 264.99620056 266.88371277 C265.58473816 267.85461853 266.17327576 268.82552429 266.77964783 269.82585144 C267.32935242 270.72666443 267.87905701 271.62747742 268.44541931 272.55558777 C268.92712585 273.34546082 269.4088324 274.13533386 269.90513611 274.94914246 C272.74145157 279.67294257 272.74145157 279.67294257 277.44541931 282.18058777 C278.61717712 282.41261902 279.78893494 282.64465027 280.99620056 282.88371277 C282.17569275 283.12605652 283.35518494 283.36840027 284.57041931 283.61808777 C285.47405212 283.78824402 286.37768494 283.95840027 287.30870056 284.13371277 C287.63870056 287.76371277 287.96870056 291.39371277 288.30870056 295.13371277 C289.56682556 295.75246277 290.82495056 296.37121277 292.12120056 297.00871277 C292.82889587 297.35675964 293.53659119 297.70480652 294.26573181 298.06340027 C298.78584191 299.65327211 303.59442469 300.2765717 308.30870056 301.13371277 C308.30870056 309.05371277 308.30870056 316.97371277 308.30870056 325.13371277 C238.80263019 326.35232569 238.80263019 326.35232569 216.83213806 306.94621277 C214.92354177 305.05843753 213.10420186 303.12822283 211.30870056 301.13371277 C209.25263033 298.92614262 207.30140754 297.43819802 204.68370056 295.94621277 C188.46076131 285.89214256 180.62609425 269.51764117 171.94297791 253.2006073 C170.27898979 250.07795736 168.60247974 246.96234975 166.92198181 243.84855652 C162.40139945 235.47225809 157.89462872 227.08855306 153.39268494 218.70222473 C152.42547038 216.90085397 151.45775014 215.09975586 150.48985291 213.29875183 C149.27167619 211.03173993 148.05450465 208.76418752 146.83848572 206.49601746 C146.28853943 205.4728241 145.73859314 204.44963074 145.17198181 203.39543152 C144.69027527 202.49784119 144.20856873 201.60025085 143.71226501 200.67546082 C142.73188758 198.90007215 141.69960569 197.15280165 140.62974548 195.42985535 C139.30870056 193.13371277 139.30870056 193.13371277 139.30870056 191.13371277 C134.02870056 191.13371277 128.74870056 191.13371277 123.30870056 191.13371277 C123.30870056 221.82371277 123.30870056 252.51371277 123.30870056 284.13371277 C129.57870056 284.13371277 135.84870056 284.13371277 142.30870056 284.13371277 C143.30870056 285.13371277 143.30870056 285.13371277 143.40635681 288.73136902 C143.40061328 290.21968532 143.38759947 291.70797573 143.37120056 293.19621277 C143.35057556 295.81558777 143.32995056 298.43496277 143.30870056 301.13371277 C149.90870056 301.13371277 156.50870056 301.13371277 163.30870056 301.13371277 C163.30870056 309.05371277 163.30870056 316.97371277 163.30870056 325.13371277 C144.02916986 325.1568304 124.74964305 325.17469129 105.47010136 325.18552494 C96.51891674 325.19068818 87.56774088 325.1977314 78.61656189 325.20915222 C70.81759668 325.21909821 63.0186378 325.22556599 55.21966642 325.22780126 C51.08757871 325.22910852 46.95550912 325.23219528 42.8234272 325.23944283 C38.9386853 325.24620171 35.0539691 325.24833 31.16922188 325.24682045 C29.73930217 325.24709684 28.30938165 325.24910275 26.87946701 325.25291824 C24.93552005 325.25785336 22.99155947 325.25611082 21.04760742 325.25396729 C19.95712632 325.25488908 18.86664522 325.25581087 17.74311924 325.2567606 C15.30870056 325.13371277 15.30870056 325.13371277 14.30870056 324.13371277 C14.23539725 321.26901952 14.21652225 318.43477603 14.24620056 315.57121277 C14.26682556 312.78683777 14.28745056 310.00246277 14.30870056 307.13371277 C7.37870056 307.13371277 0.44870056 307.13371277 -6.69129944 307.13371277 C-6.69129944 299.54371277 -6.69129944 291.95371277 -6.69129944 284.13371277 C4.24620056 283.82121277 4.24620056 283.82121277 7.63658142 283.74577332 C14.83081815 283.48440752 21.74666893 282.75836766 27.68370056 278.38371277 C32.08900377 272.28406218 32.74832468 266.9484965 32.70742798 259.63616943 C32.71407481 258.69913852 32.72072163 257.76210761 32.72756988 256.79668182 C32.7461722 253.66745892 32.74359641 250.53861931 32.74107361 247.40934753 C32.75009243 245.16203269 32.76041995 242.91472276 32.7719574 240.66741943 C32.79953916 234.57297401 32.80881358 228.47862189 32.81481147 222.38412213 C32.824192 216.01260507 32.85039517 209.6411578 32.87481689 203.26968384 C32.91353221 192.57763945 32.94188152 181.88561814 32.96226501 171.19352722 C32.98328451 160.18275767 33.01056805 149.17203289 33.04624939 138.16130066 C33.04844821 137.48210473 33.05064704 136.8029088 33.0529125 136.10313118 C33.06398239 132.69565704 33.07517515 129.28818331 33.086429 125.88070977 C33.17956786 97.63174856 33.25036755 69.38276532 33.30870056 41.13371277 C27.03870056 41.13371277 20.76870056 41.13371277 14.30870056 41.13371277 C14.30870056 35.52371277 14.30870056 29.91371277 14.30870056 24.13371277 C12.87655212 24.14531433 11.44440369 24.15691589 9.96885681 24.16886902 C8.10297269 24.17824532 6.23708717 24.18734569 4.37120056 24.19621277 C3.42567322 24.20459167 2.48014587 24.21297058 1.50596619 24.22160339 C0.15728455 24.22643738 0.15728455 24.22643738 -1.21864319 24.23136902 C-2.4676239 24.23922424 -2.4676239 24.23922424 -3.74183655 24.24723816 C-5.69129944 24.13371277 -5.69129944 24.13371277 -6.69129944 23.13371277 C-6.79046514 21.51113733 -6.82209721 19.88431446 -6.82411194 18.25871277 C-6.825401 17.27386902 -6.82669006 16.28902527 -6.82801819 15.27433777 C-6.824151 14.23793152 -6.82028381 13.20152527 -6.81629944 12.13371277 C-6.82210022 10.57910339 -6.82210022 10.57910339 -6.82801819 8.99308777 C-6.82672913 8.00824402 -6.82544006 7.02340027 -6.82411194 6.00871277 C-6.82298401 5.09863464 -6.82185608 4.18855652 -6.82069397 3.25090027 C-6.55741214 -1.05698658 -3.68060653 0.00570366 0 0 Z M123.30870056 44.13371277 C123.30870056 78.78371277 123.30870056 113.43371277 123.30870056 149.13371277 C142.43188122 147.96770532 142.43188122 147.96770532 159.30870056 140.13371277 C159.87846619 139.77277527 160.44823181 139.41183777 161.03526306 139.03996277 C170.41297802 132.26487355 174.35028398 118.99539242 176.30870056 108.13371277 C176.49174744 107.15144714 176.67479431 106.16918152 176.86338806 105.15715027 C179.16437847 88.28551702 180.54378952 61.98752417 170.30870056 47.13371277 C160.26410232 40.24598826 127.5406584 44.13371277 123.30870056 44.13371277 Z " fill="#A35900" transform="translate(14.691299438476563,12.866287231445313)"/>
<path d="M0 0 C78.54 0 157.08 0 238 0 C239.53190797 3.06381594 239.10243613 6.26965866 239.0625 9.625 C239.041875 12.05875 239.02125 14.4925 239 17 C245.6 17 252.2 17 259 17 C259.7775133 28.46015398 260.27854082 39.89291924 260.5625 51.375 C260.58367889 52.19284973 260.60485779 53.01069946 260.62667847 53.85333252 C260.99652679 68.24083468 261.08466659 82.6066802 261 97 C250.77 97 240.54 97 230 97 C229.16043177 91.12302239 228.91959387 85.86964755 229 80 C228.14450562 80.00785522 228.14450562 80.00785522 227.27172852 80.01586914 C224.70199677 80.03658221 222.13228253 80.0496419 219.5625 80.0625 C218.66466797 80.07087891 217.76683594 80.07925781 216.84179688 80.08789062 C215.56079102 80.09272461 215.56079102 80.09272461 214.25390625 80.09765625 C213.46314697 80.10289307 212.6723877 80.10812988 211.85766602 80.11352539 C210 80 210 80 209 79 C208.72517633 77.25675756 208.50828396 75.50431047 208.31640625 73.75 C208.13174805 72.12384766 208.13174805 72.12384766 207.94335938 70.46484375 C207.69289378 68.18624905 207.4428808 65.90760454 207.19335938 63.62890625 C207.06896484 62.53449219 206.94457031 61.44007812 206.81640625 60.3125 C206.70756104 59.31863281 206.59871582 58.32476562 206.48657227 57.30078125 C205.87651462 53.16230692 204.90746292 49.08358313 204 45 C179.25 44.67 154.5 44.34 129 44 C129 77 129 110 129 144 C155.73 144 182.46 144 210 144 C210 149.61 210 155.22 210 161 C216.93 161 223.86 161 231 161 C231 169.58 231 178.16 231 187 C197.34 187 163.68 187 129 187 C129.33 219.01 129.66 251.02 130 284 C139.24 284 148.48 284 158 284 C158 289.28 158 294.56 158 300 C164.6 300.33 171.2 300.66 178 301 C178 308.59 178 316.18 178 324 C136.70680365 324.56914376 95.41441377 325.10482108 54.11669922 325.12338257 C51.74478752 325.12500356 49.37288534 325.12856176 47.00097656 325.13256836 C43.30195054 325.13834346 39.60296594 325.13870801 35.90393829 325.13431931 C33.90924579 325.13284925 31.91455157 325.13578043 29.91986084 325.13882446 C28.7497345 325.13571259 27.57960815 325.13260071 26.37402344 325.12939453 C24.84331207 325.12820114 24.84331207 325.12820114 23.28167725 325.12698364 C21 325 21 325 20 324 C19.92669669 321.13530675 19.90782169 318.30106326 19.9375 315.4375 C19.958125 312.653125 19.97875 309.86875 20 307 C13.4 307 6.8 307 0 307 C0 299.41 0 291.82 0 284 C10.9375 283.6875 10.9375 283.6875 14.32788086 283.61206055 C21.60271624 283.34776661 29.01205384 282.91133216 34.4375 277.625 C38.80044579 270.29525107 39.14877937 263.13840654 39.12025452 254.81253052 C39.12153615 253.43889243 39.12153615 253.43889243 39.12284368 252.03750408 C39.12448849 248.97436422 39.11899345 245.91127933 39.11352539 242.84814453 C39.11324328 240.65024314 39.11340172 238.45234165 39.1139679 236.25444031 C39.11425493 230.29010154 39.10837335 224.32578286 39.10139394 218.36144876 C39.09514479 212.12743131 39.09455536 205.89341341 39.09336853 199.65939331 C39.09061308 189.19675353 39.08436588 178.73412062 39.07543945 168.27148438 C39.06625605 157.49641964 39.05917976 146.72135692 39.05493164 135.94628906 C39.05466892 135.28176539 39.05440619 134.61724172 39.05413551 133.93258096 C39.05283044 130.59875689 39.051569 127.26493281 39.05032361 123.93110871 C39.03986966 96.2874005 39.02207779 68.64370116 39 41 C32.73 41 26.46 41 20 41 C20 35.39 20 29.78 20 24 C13.4 24 6.8 24 0 24 C0 16.08 0 8.16 0 0 Z " fill="#A35900" transform="translate(590,13)"/>
<path d="M0 0 C0.79663055 -0.00067474 1.59326111 -0.00134949 2.41403198 -0.00204468 C31.46623942 0.03690955 62.44570331 3.42411927 85.8125 22.25 C87.66208292 24.21586318 89.33458959 26.24585253 91.015625 28.35546875 C93.18648962 30.64431515 95.48589354 32.06429722 98.1875 33.6875 C107.98425184 39.6355279 114.87235318 47.10709182 118.41796875 58.1328125 C120.34498353 68.47382253 119.05486077 78.56148693 113.41015625 87.4609375 C105.20305352 97.93552826 91.45346342 103.08992698 78.625 105 C74.01179247 105.30250541 69.43337428 105.33522104 64.8125 105.25 C63.63783548 101.72600644 63.21222611 98.22949383 62.75 94.5625 C62.65912109 93.86060547 62.56824219 93.15871094 62.47460938 92.43554688 C62.25124006 90.70737377 62.03151504 88.97873033 61.8125 87.25 C60.8225 87.58 59.8325 87.91 58.8125 88.25 C56.23984182 88.32029121 53.69608569 88.34370832 51.125 88.3125 C50.42310547 88.30798828 49.72121094 88.30347656 48.99804688 88.29882812 C47.26949462 88.28706927 45.54098635 88.26913454 43.8125 88.25 C43.74256836 87.64639648 43.67263672 87.04279297 43.60058594 86.42089844 C42.27757769 75.26253625 40.96668144 64.74477416 36.8125 54.25 C36.13665643 52.2530824 35.46779743 50.25375391 34.8125 48.25 C19.63325064 44.48877007 0.63518543 45.07587758 -13.1875 53.25 C-15.54487425 54.74595201 -17.86058727 56.2769794 -20.14453125 57.8828125 C-22.1875 59.25 -22.1875 59.25 -24.38671875 60.2421875 C-26.53865712 61.18110918 -26.53865712 61.18110918 -27.1875 64.25 C-27.8475 64.25 -28.5075 64.25 -29.1875 64.25 C-29.44144531 64.79527344 -29.69539063 65.34054688 -29.95703125 65.90234375 C-31.4122203 68.67875206 -33.14152747 71.20037145 -34.875 73.8125 C-43.53111352 87.53454246 -47.61293661 103.38246524 -50.1875 119.25 C-50.33703125 120.10674316 -50.4865625 120.96348633 -50.640625 121.84619141 C-53.50229939 138.92681041 -53.50407074 156.10280784 -53.5625 173.375 C-53.57035522 174.51369537 -53.57821045 175.65239075 -53.58630371 176.82559204 C-53.75047264 207.46320548 -52.23207197 242.98084 -33.25390625 268.6484375 C-32.1875 270.25 -32.1875 270.25 -32.1875 272.25 C-29.20000734 273.29009004 -26.19637359 274.27366934 -23.1875 275.25 C-22.43726563 275.51296875 -21.68703125 275.7759375 -20.9140625 276.046875 C5.97263779 284.57404855 33.93304236 280.44079357 58.5625 267.9375 C70.76931065 261.14427491 80.77302247 251.58772472 88.8125 240.25 C93.23570267 242.32508274 95.03508663 244.39284583 96.9375 248.9375 C99.12211908 257.20784365 98.6978201 263.91408055 96.8125 272.25 C97.26625 271.59 97.72 270.93 98.1875 270.25 C98.72375 269.59 99.26 268.93 99.8125 268.25 C100.4725 268.25 101.1325 268.25 101.8125 268.25 C102.07804688 267.66734375 102.34359375 267.0846875 102.6171875 266.484375 C103.84552996 264.18825772 105.21564939 262.44643982 106.9375 260.5 C107.74574219 259.57960938 107.74574219 259.57960938 108.5703125 258.640625 C108.98023438 258.18171875 109.39015625 257.7228125 109.8125 257.25 C114.10466445 259.00465842 115.13083658 261.16397441 116.99609375 265.23828125 C120.60000904 274.11874238 118.82695435 283.45689354 115.8125 292.25 C109.65900823 305.38128306 99.98841768 313.12579285 87.8125 320.25 C87.11382813 320.67152344 86.41515625 321.09304688 85.6953125 321.52734375 C68.28860466 331.15905542 46.26098867 332.59908709 26.8125 333.25 C24.90597656 333.32927734 24.90597656 333.32927734 22.9609375 333.41015625 C-11.99569843 334.40131654 -51.86355579 326.32838087 -78.2578125 301.80908203 C-79.29352958 300.81207423 -80.32480654 299.81043309 -81.3515625 298.80419922 C-85.40738067 294.85155984 -89.72898456 291.50706007 -94.3125 288.1875 C-125.98075982 264.96135918 -140.60157772 228.56333582 -146.42578125 190.7734375 C-146.68675818 188.9332806 -146.94105394 187.09215925 -147.1875 185.25 C-147.2920752 184.46931152 -147.39665039 183.68862305 -147.50439453 182.88427734 C-148.42608936 174.99133791 -148.43004995 167.06138125 -148.4375 159.125 C-148.43850708 158.37799835 -148.43951416 157.6309967 -148.44055176 156.86135864 C-148.42310604 137.61950032 -146.43371879 118.80730666 -141.1875 100.25 C-140.85234375 99.04988281 -140.5171875 97.84976563 -140.171875 96.61328125 C-133.56154896 75.08317003 -122.74525078 56.47834348 -107.1875 40.25 C-106.41921875 39.41855469 -105.6509375 38.58710937 -104.859375 37.73046875 C-77.70971177 9.22332236 -37.9760026 0.02895448 0 0 Z " fill="#A35900" transform="translate(463.1875,8.75)"/>
<path d="M0 0 C4.07036733 3.45167149 6.79285313 5.91027796 8.50390625 11.0703125 C7.26640625 10.7403125 6.02890625 10.4103125 4.75390625 10.0703125 C-10.07634024 6.86937421 -28.02114278 9.42307608 -40.890625 17.58984375 C-42.42446855 18.60827622 -43.94697992 19.64415961 -45.453125 20.703125 C-47.49609375 22.0703125 -47.49609375 22.0703125 -49.6953125 23.0625 C-51.84725087 24.00142168 -51.84725087 24.00142168 -52.49609375 27.0703125 C-53.15609375 27.0703125 -53.81609375 27.0703125 -54.49609375 27.0703125 C-54.87701172 27.88822266 -54.87701172 27.88822266 -55.265625 28.72265625 C-56.72081405 31.49906456 -58.45012122 34.02068395 -60.18359375 36.6328125 C-68.83970727 50.35485496 -72.92153036 66.20277774 -75.49609375 82.0703125 C-75.72039062 83.35542725 -75.72039062 83.35542725 -75.94921875 84.66650391 C-78.81089314 101.74712291 -78.81266449 118.92312034 -78.87109375 136.1953125 C-78.88287659 137.90335556 -78.88287659 137.90335556 -78.89489746 139.64590454 C-79.06328309 171.07044924 -77.28137055 206.9798376 -57.49609375 233.0703125 C-57.82609375 233.7303125 -58.15609375 234.3903125 -58.49609375 235.0703125 C-79.44789052 221.75387768 -90.31413143 202.91752546 -95.68359375 179.2578125 C-96.14637894 176.99170516 -96.58737907 174.72194258 -97.02857971 172.45153809 C-97.31581812 170.98852439 -97.61054399 169.5269275 -97.91783142 168.06799316 C-101.1720826 152.48964025 -100.91910946 136.80270464 -100.81866455 120.9720459 C-100.80521543 118.09849812 -100.81041387 115.22510811 -100.81579304 112.35154343 C-100.81917324 109.53208845 -100.81242925 106.71272508 -100.8026638 103.89328766 C-100.79708953 101.94227353 -100.79822883 99.99124375 -100.79963684 98.04022217 C-100.739915 90.40352412 -100.11306371 83.066164 -98.9962616 75.52716064 C-98.48673683 72.00564332 -98.10677483 68.48482453 -97.74609375 64.9453125 C-94.73018612 42.51449951 -86.34038455 17.92242039 -68.49609375 3.0703125 C-49.3218096 -11.25940517 -19.83189026 -15.33169607 0 0 Z " fill="#010000" transform="translate(488.49609375,45.9296875)"/>
<path d="M0 0 C15.77437091 8.95044788 27.71027174 21.5158587 32.99609375 39.36328125 C39.0582165 64.51093877 36.06143305 88.70386339 23 111 C20.55783425 114.5703906 17.91995907 117.81242758 15 121 C14.45988281 121.6084375 13.91976562 122.216875 13.36328125 122.84375 C3.97795788 132.84264173 -7.56017737 139.55201085 -20 145 C-20.66 145 -21.32 145 -22 145 C-21.43623657 145.97718994 -21.43623657 145.97718994 -20.86108398 146.97412109 C-19.71719438 148.95686307 -18.57331522 150.93961107 -17.42944336 152.92236328 C-16.08267577 155.25671642 -14.73584393 157.59103235 -13.38891602 159.92529297 C-9.97622702 165.83978489 -6.56460594 171.75488441 -3.15625 177.671875 C0.55729408 184.11759595 4.27638526 190.56009167 8 197 C8.88751953 198.53551514 8.88751953 198.53551514 9.79296875 200.10205078 C17.88137062 214.08043403 26.1468889 227.93871066 34.59643555 241.7019043 C36.07745915 244.12682606 37.54104097 246.56175079 39 249 C34.43010445 247.73499993 31.59082019 246.15900827 28.125 242.9375 C27.34382813 242.22464844 26.56265625 241.51179687 25.7578125 240.77734375 C19.26374837 234.23728766 13.74642077 227.59301138 9 219.6875 C8.45657959 218.79651611 7.91315918 217.90553223 7.35327148 216.98754883 C1.01672974 206.51595588 -4.99463275 195.85395603 -11.03326416 185.20909119 C-14.35345488 179.36374965 -17.73203049 173.55330975 -21.125 167.75 C-21.68525879 166.7902124 -22.24551758 165.8304248 -22.82275391 164.84155273 C-25.85176216 159.65737242 -28.89515044 154.48195644 -31.94921875 149.3125 C-32.59552246 148.21454102 -33.24182617 147.11658203 -33.90771484 145.98535156 C-35.14990903 143.8754365 -36.3961412 141.76789202 -37.64697266 139.66308594 C-38.20304199 138.71723633 -38.75911133 137.77138672 -39.33203125 136.796875 C-39.82421143 135.96510742 -40.3163916 135.13333984 -40.82348633 134.27636719 C-41.91677926 132.16101892 -42.5439966 130.32645254 -43 128 C-42.44650879 127.70867187 -41.89301758 127.41734375 -41.32275391 127.1171875 C-31.21024081 121.7631327 -21.58509087 116.63308079 -13 109 C-12.19175781 108.38769531 -11.38351563 107.77539062 -10.55078125 107.14453125 C2.69588913 96.00759092 11.70891182 77.12276534 13.38232422 60.11401367 C13.50845676 56.76529812 13.56335456 53.44515965 13.52148438 50.09594727 C13.50003699 48.06600121 13.52141939 46.03960569 13.546875 44.00976562 C13.57390737 31.98571418 11.54347937 20.31521928 5.375 9.8125 C4.78460938 8.78769531 4.19421875 7.76289062 3.5859375 6.70703125 C2.80089844 5.36705078 2.80089844 5.36705078 2 4 C1.32020854 2.67331021 0.64736857 1.34280906 0 0 Z " fill="#010000" transform="translate(250,46)"/>
<path d="M0 0 C6.93 0 13.86 0 21 0 C21 8.58 21 17.16 21 26 C-12.66 26 -46.32 26 -81 26 C-80.67 58.01 -80.34 90.02 -80 123 C-90.81512605 123 -90.81512605 123 -95.48046875 118.60546875 C-102.05170306 110.99362842 -102.15410567 103.22425335 -102.11352539 93.57641602 C-102.11364593 92.64382682 -102.11376646 91.71123762 -102.11389065 90.75038815 C-102.11314823 87.75153602 -102.1055507 84.75274716 -102.09765625 81.75390625 C-102.09618475 79.89449086 -102.09516532 78.03507506 -102.09460449 76.17565918 C-102.0893757 69.30459978 -102.07541443 62.43354926 -102.0625 55.5625 C-102.041875 40.196875 -102.02125 24.83125 -102 9 C-68.34 9 -34.68 9 0 9 C0 6.03 0 3.06 0 0 Z " fill="#000000" transform="translate(800,174)"/>
<path d="M0 0 C4.29216445 1.75465842 5.31833658 3.91397441 7.18359375 7.98828125 C10.78750904 16.86874238 9.01445435 26.20689354 6 35 C-0.15349177 48.13128306 -9.82408232 55.87579285 -22 63 C-23.04800781 63.63228516 -23.04800781 63.63228516 -24.1171875 64.27734375 C-41.52389534 73.90905542 -63.55151133 75.34908709 -83 76 C-84.27101563 76.05285156 -85.54203125 76.10570312 -86.8515625 76.16015625 C-123.59574755 77.2020007 -163.21843533 68.06422727 -190.625 42.3125 C-192.44291725 40.56454357 -194.22747113 38.7944506 -196 37 C-191.74863625 37 -188.80409426 39.16270116 -185.1875 41.1875 C-150.97325155 59.75722082 -102.51669427 63.13956207 -65.07714844 52.71118164 C-47.02339606 47.32926858 -28.67698366 39.51680645 -18.56640625 22.6015625 C-17.75442072 21.07877343 -16.9504849 19.5516533 -16.15625 18.01953125 C-14.47967615 15.09119112 -12.58157279 13.16293937 -10 11 C-9.34 11 -8.68 11 -8 11 C-7.73445312 10.41734375 -7.46890625 9.8346875 -7.1953125 9.234375 C-5.96697004 6.93825772 -4.59685061 5.19643982 -2.875 3.25 C-2.33617187 2.63640625 -1.79734375 2.0228125 -1.2421875 1.390625 C-0.83226562 0.93171875 -0.42234375 0.4728125 0 0 Z " fill="#000000" transform="translate(573,266)"/>
<path d="M0 0 C18.253125 -0.12375 18.253125 -0.12375 36.875 -0.25 C40.6994873 -0.28641602 44.52397461 -0.32283203 48.46435547 -0.36035156 C53.17993164 -0.37841797 53.17993164 -0.37841797 55.39627075 -0.3817749 C56.92504552 -0.38786689 58.45380258 -0.40182952 59.98245239 -0.42230225 C68.99574601 -0.53684823 76.86695186 -0.41853593 85 4 C86.093125 4.5775 87.18625 5.155 88.3125 5.75 C91.77926336 8.65240653 94.01718051 11.94662565 96 16 C96 16.66 96 17.32 96 18 C71.25 17.67 46.5 17.34 21 17 C21 50 21 83 21 117 C14.07 117 7.14 117 0 117 C0 78.39 0 39.78 0 0 Z " fill="#000000" transform="translate(698,40)"/>
<path d="M0 0 C49.7879925 0 49.7879925 0 62.375 11.9375 C65.47324981 15.04192162 66.2669723 16.66743074 68 21 C63.38 20.34 58.76 19.68 54 19 C43.11 18.67 32.22 18.34 21 18 C21 52.65 21 87.3 21 123 C14.07 123 7.14 123 0 123 C0 82.41 0 41.82 0 0 Z " fill="#000000" transform="translate(117,39)"/>
<path d="M0 0 C6.93 0 13.86 0 21 0 C21 7.59 21 15.18 21 23 C-20.29319635 23.56914376 -61.58558623 24.10482108 -102.88330078 24.12338257 C-105.25521248 24.12500356 -107.62711466 24.12856176 -109.99902344 24.13256836 C-113.69804946 24.13834346 -117.39703406 24.13870801 -121.09606171 24.13431931 C-123.09075421 24.13284925 -125.08544843 24.13578043 -127.08013916 24.13882446 C-128.2502655 24.13571259 -129.42039185 24.13260071 -130.62597656 24.12939453 C-132.15668793 24.12820114 -132.15668793 24.12820114 -133.71832275 24.12698364 C-136 24 -136 24 -137 23 C-137 17.39 -137 11.78 -137 6 C-91.79 6 -46.58 6 0 6 C0 4.02 0 2.04 0 0 Z " fill="#000000" transform="translate(747,314)"/>
<path d="M0 0 C6.93 0 13.86 0 21 0 C21 7.92 21 15.84 21 24 C1.72046929 24.02311763 -17.55905752 24.04097853 -36.83859921 24.05181217 C-45.78978382 24.05697541 -54.74095968 24.06401863 -63.69213867 24.07543945 C-71.49110388 24.08538545 -79.29006276 24.09185322 -87.08903414 24.09408849 C-91.22112186 24.09539575 -95.35319144 24.09848251 -99.48527336 24.10573006 C-103.37001526 24.11248894 -107.25473146 24.11461723 -111.13947868 24.11310768 C-112.56939839 24.11338407 -113.99931891 24.11538998 -115.42923355 24.11920547 C-117.37318051 24.12414059 -119.31714109 24.12239805 -121.26109314 24.12025452 C-122.35157424 24.12117631 -123.44205534 24.1220981 -124.56558132 24.12304783 C-127 24 -127 24 -128 23 C-128 17.39 -128 11.78 -128 6 C-85.76 6 -43.52 6 0 6 C0 4.02 0 2.04 0 0 Z " fill="#000000" transform="translate(157,314)"/>
<path d="M0 0 C4.54030981 -0.29110292 9.07822628 -0.4682147 13.625 -0.625 C14.91019531 -0.70878906 16.19539063 -0.79257813 17.51953125 -0.87890625 C21.25017872 -0.97555515 24.38205831 -0.92863913 28 0 C31.08060724 2.92537737 32.48581426 6.07844038 34 10 C34.99 12.31 35.98 14.62 37 17 C31.72 17 26.44 17 21 17 C21 47.69 21 78.38 21 110 C13.09543848 110 10.63649066 109.7513143 5 105 C3.125 102.5 3.125 102.5 2 100 C1.4772197 98.97251396 1.4772197 98.97251396 0.94387817 97.92427063 C-0.38017217 93.82217184 -0.26244475 89.99575305 -0.22705078 85.71166992 C-0.22734283 84.78435059 -0.22763489 83.85703125 -0.22793579 82.90161133 C-0.22654535 79.84446776 -0.21099749 76.78756961 -0.1953125 73.73046875 C-0.19158136 71.6076928 -0.18873486 69.48491513 -0.18673706 67.36213684 C-0.1791086 61.78080472 -0.15946679 56.19957705 -0.1373291 50.61828613 C-0.11685376 44.92066867 -0.10773173 39.22303429 -0.09765625 33.52539062 C-0.07622023 22.35021458 -0.04209371 11.17511598 0 0 Z " fill="#000000" transform="translate(117,187)"/>
<path d="M0 0 C10.57519538 4.50424989 19.75705571 12.70770584 25.02734375 23.0078125 C28.77951568 32.37959678 28.20872943 43.33528209 24.30859375 52.5390625 C18.61367376 63.24891203 8.51629171 68.74155557 -2.75 72.375 C-10.91331899 74.64636343 -18.54780302 75.15588068 -27 75 C-28.23759823 71.28720531 -28.35608897 67.68693654 -28.5625 63.8125 C-28.60568359 63.06291016 -28.64886719 62.31332031 -28.69335938 61.54101562 C-28.79922685 59.69421625 -28.9000976 57.84713166 -29 56 C-28.41734375 55.78085938 -27.8346875 55.56171875 -27.234375 55.3359375 C-9.30942371 48.63725972 -9.30942371 48.63725972 2.375 34.3125 C5.91155894 25.65561878 6.62761439 16.15861517 3.0625 7.375 C2.38455743 5.91219918 1.698497 4.45309817 1 3 C0.67 2.01 0.34 1.02 0 0 Z " fill="#000000" transform="translate(555,39)"/>
<path d="M0 0 C6.6 0 13.2 0 20 0 C20.7775133 11.46015398 21.27854082 22.89291924 21.5625 34.375 C21.59426834 35.6017746 21.59426834 35.6017746 21.62667847 36.85333252 C21.99652679 51.24083468 22.08466659 65.6066802 22 80 C11.77 80 1.54 80 -9 80 C-9.8520338 74.03576338 -10.08160247 68.95697995 -10 63 C-6.37 63 -2.74 63 1 63 C0.83701416 61.44176514 0.67402832 59.88353027 0.50610352 58.27807617 C-0.06008842 52.02399903 -0.12762977 45.8265939 -0.09765625 39.55078125 C-0.0962413 38.41215134 -0.09482635 37.27352142 -0.09336853 36.10038757 C-0.08782209 32.50439702 -0.07527989 28.90847137 -0.0625 25.3125 C-0.05747807 22.85742278 -0.05291638 20.40234458 -0.04882812 17.94726562 C-0.03787027 11.96481918 -0.02064327 5.98242055 0 0 Z " fill="#010000" transform="translate(829,30)"/>
<path d="M0 0 C3.36914062 1.46484375 3.36914062 1.46484375 6.73828125 2.9296875 C11.35870335 4.44584996 16.21561463 5.13011175 21 6 C21 13.92 21 21.84 21 30 C-50.39300318 31.25169551 -50.39300318 31.25169551 -72.75 9.6875 C-75.02670045 7.32948882 -75.94660068 6.16019796 -77 3 C-75.14375 3.6496875 -75.14375 3.6496875 -73.25 4.3125 C-71.50216378 4.88168783 -69.7520141 5.44380505 -68 6 C-67.19949219 6.26296875 -66.39898437 6.5259375 -65.57421875 6.796875 C-44.84965191 12.81467515 -21.44776879 11.49616586 0 12 C0 8.04 0 4.08 0 0 Z " fill="#000000" transform="translate(302,308)"/>
<path d="M0 0 C8.4 0 8.4 0 13 3 C17.66399762 7.71428331 19 10.18940709 19 17 C12.73 17 6.46 17 0 17 C0 11.39 0 5.78 0 0 Z " fill="#010100" transform="translate(610,37)"/>
<path d="M0 0 C7.2100543 0 9.79628924 0.49613754 15 5 C18.20499459 8.94115582 19 11.80967106 19 17 C12.73 17 6.46 17 0 17 C0 11.39 0 5.78 0 0 Z " fill="#020100" transform="translate(29,37)"/>
</svg>
